<?xml version="1.0" encoding="utf-8"?>
<!-- Generator: Adobe Illustrator 20.1.0, SVG Export Plug-In . SVG Version: 6.00 Build 0)  -->
<svg version="1.1" id="Ebene_1" xmlns="http://www.w3.org/2000/svg" xmlns:xlink="http://www.w3.org/1999/xlink" x="0px" y="0px"
	 viewBox="0 0 134 55" style="enable-background:new 0 0 134 55;" xml:space="preserve">
<style type="text/css">
	.st0{fill:#FFFFFF;}
	.st1{fill:url(#SVGID_1_);}
	.st2{fill:url(#SVGID_2_);}
	.st3{fill:url(#SVGID_3_);}
</style>
<image style="display:none;overflow:visible;enable-background:new    ;" width="134" height="55" xlink:href="logo.png"  transform="matrix(1 0 0 1 138.6001 262.6001)">
</image>
<g>
	<g>
		<path class="st0" d="M94.6,6v24.2H6V6H94.6L94.6,6z M93.9,6.8h-87v22.6h87V6.8L93.9,6.8z"/>
		<path class="st0" d="M14.9,11.9v4.8l4.3-4.8h3.5l-5.1,5.7l5.3,6.1h-3.5l-4.6-4.8v4.8h-2.9V11.9L14.9,11.9L14.9,11.9z"/>
		<polygon class="st0" points="60,16.6 60,11.9 62.8,11.9 62.8,23.7 60,23.7 60,19 54.4,19 54.4,23.7 51.5,23.7 51.5,11.9 
			54.4,11.9 54.4,16.6 		"/>
		<polygon class="st0" points="73.7,19.3 73.7,11.9 76.6,11.9 76.6,23.7 73.7,23.7 68.2,16.6 68.2,23.7 65.3,23.7 65.3,11.9 
			68.2,11.9 		"/>
		<polygon class="st0" points="81.9,14.3 81.9,16.6 88.6,16.6 88.6,19 81.9,19 81.9,21.4 88.6,21.4 88.6,23.7 79.1,23.7 79.1,11.9 
			88.6,11.9 88.6,14.3 		"/>
		<path class="st0" d="M33.2,19.4c0,0,2,0,2-1.9c0,0,0-3.7,0-3.8c-0.1-1-1-1.7-1.9-1.8h-8.8v11.8h2.9v-4.2h2.7l2.5,4.2h2.9
			C35.3,23.8,33.2,19.4,33.2,19.4L33.2,19.4z M32.5,15.6c0,1.2-0.2,1.4-0.4,1.5h-4.9v-2.8h4.9C32.1,14.3,32.5,14.1,32.5,15.6
			L32.5,15.6z"/>
	</g>
	<path class="st0" d="M47.2,11.9h-7.8c-1,0-1.8,0.8-1.8,1.8V22c0,1,0.8,1.8,1.8,1.8h7.8c1,0,1.8-0.8,1.8-1.8v-8.3
		C49,12.7,48.2,11.9,47.2,11.9z M46.1,21.3h-5.6v-7.1h5.6V21.3z"/>
</g>
<g id="Claim">
	<g>
		<g>
			<path class="st0" d="M34.9,44.6v-3.9c0-1-0.6-1.4-1.3-1.4s-1.3,0.4-1.3,1.3v3.9H31v-3.9c0-1-0.6-1.4-1.3-1.4s-1.3,0.4-1.3,1.4
				v3.9h-1.3v-6.3h1.2v0.6c0.4-0.5,1-0.7,1.7-0.7c0.8,0,1.4,0.3,1.8,0.9c0.5-0.6,1.1-0.9,2-0.9c0.6,0,1.2,0.2,1.6,0.6
				c0.5,0.5,0.7,1.1,0.7,1.8v4L34.9,44.6L34.9,44.6L34.9,44.6z"/>
			<path class="st0" d="M39,41.8c0,1.1,0.6,1.8,1.6,1.8c0.7,0,1.1-0.2,1.5-0.6l0.8,0.8c-0.6,0.6-1.3,1-2.4,1c-1.6,0-2.8-0.8-2.8-3.2
				c0-2.1,1.1-3.2,2.7-3.2c1.7,0,2.7,1.2,2.7,3.1V42H39V41.8z M41.7,40.1c-0.2-0.5-0.6-0.8-1.2-0.8s-1,0.3-1.3,0.8
				C39.1,40.4,39,40.6,39,41h2.8C41.8,40.5,41.8,40.3,41.7,40.1z"/>
			<path class="st0" d="M48.2,44.6V44c-0.5,0.5-0.9,0.6-1.7,0.6s-1.3-0.2-1.7-0.6c-0.3-0.3-0.5-0.8-0.5-1.4c0-1.1,0.7-1.8,2.2-1.8
				h1.7v-0.4c0-0.8-0.4-1.2-1.4-1.2c-0.7,0-1,0.2-1.4,0.6L44.6,39c0.6-0.7,1.2-0.9,2.3-0.9c1.7,0,2.6,0.7,2.6,2.2v4.2L48.2,44.6
				L48.2,44.6L48.2,44.6z M48.1,41.8h-1.5c-0.8,0-1.2,0.3-1.2,0.9s0.4,0.9,1.2,0.9c0.4,0,0.8-0.1,1.1-0.4c0.2-0.2,0.3-0.5,0.3-0.9
				L48.1,41.8L48.1,41.8z"/>
			<path class="st0" d="M53.4,44.7c-1,0-1.9-0.2-2.7-0.9l0.8-0.8c0.5,0.5,1.2,0.7,1.8,0.7c0.8,0,1.4-0.3,1.4-0.9
				c0-0.4-0.2-0.7-0.8-0.7l-1-0.1c-1.2-0.1-1.9-0.6-1.9-1.7c0-1.2,1.1-1.9,2.4-1.9c1,0,1.8,0.2,2.3,0.7l-0.8,0.8
				c-0.4-0.3-1-0.5-1.6-0.5c-0.8,0-1.1,0.3-1.1,0.8c0,0.4,0.3,0.7,0.9,0.7L54,41c1.3,0.1,2,0.7,2,1.8C56.1,44,54.9,44.7,53.4,44.7z"
				/>
			<path class="st0" d="M61.5,44.6V44c-0.4,0.5-1,0.7-1.7,0.7c-0.6,0-1.2-0.2-1.6-0.6c-0.5-0.5-0.6-1.1-0.6-1.8v-4h1.3v3.9
				c0,1,0.6,1.4,1.3,1.4c0.7,0,1.3-0.4,1.3-1.4v-3.9h1.3v6.3L61.5,44.6L61.5,44.6z"/>
			<path class="st0" d="M68.4,39.8c-0.3-0.3-0.5-0.4-0.9-0.4c-0.7,0-1.3,0.5-1.3,1.4v3.8h-1.3v-6.3h1.2V39c0.3-0.4,1-0.8,1.7-0.8
				c0.6,0,1.1,0.2,1.5,0.6L68.4,39.8z"/>
			<path class="st0" d="M71.2,41.8c0,1.1,0.6,1.8,1.6,1.8c0.7,0,1.1-0.2,1.5-0.6l0.8,0.8c-0.6,0.6-1.3,1-2.4,1
				c-1.6,0-2.8-0.8-2.8-3.2c0-2.1,1.1-3.2,2.7-3.2c1.7,0,2.7,1.2,2.7,3.1V42h-4.1L71.2,41.8L71.2,41.8z M73.8,40.1
				c-0.2-0.5-0.6-0.8-1.2-0.8s-1,0.3-1.3,0.8c-0.1,0.3-0.1,0.5-0.2,0.9h2.8C74,40.5,74,40.3,73.8,40.1z"/>
			<path class="st0" d="M82.5,44.6c-1.2,0-1.7-0.8-1.7-1.8v-3.6h-0.7v-1h0.7v-1.8h1.3v1.8h1.2v1h-1.2v3.5c0,0.5,0.2,0.7,0.7,0.7h0.5
				v1.1h-0.8V44.6z"/>
			<path class="st0" d="M88.9,44.6v-3.9c0-1-0.6-1.4-1.3-1.4s-1.3,0.4-1.3,1.4v3.9H85v-8.9h1.3v3.2c0.4-0.5,1-0.7,1.7-0.7
				c0.6,0,1.2,0.2,1.6,0.6c0.5,0.5,0.6,1.1,0.6,1.8v4L88.9,44.6L88.9,44.6z"/>
			<path class="st0" d="M93.2,41.8c0,1.1,0.6,1.8,1.6,1.8c0.7,0,1.1-0.2,1.5-0.6l0.8,0.8c-0.6,0.6-1.3,1-2.4,1
				c-1.6,0-2.8-0.8-2.8-3.2c0-2.1,1.1-3.2,2.7-3.2c1.7,0,2.7,1.2,2.7,3.1V42h-4.1L93.2,41.8L93.2,41.8z M95.9,40.1
				c-0.2-0.5-0.7-0.8-1.2-0.8c-0.6,0-1,0.3-1.3,0.8c-0.1,0.3-0.1,0.5-0.2,0.9H96C96,40.5,96,40.3,95.9,40.1z"/>
			<path class="st0" d="M103.9,39.3v5.3h-1.3v-5.3h-0.7v-1h0.7v-0.9c0-0.9,0.5-1.8,1.7-1.8h0.8v1.1h-0.6c-0.5,0-0.7,0.3-0.7,0.7v0.8
				h1.3v1L103.9,39.3L103.9,39.3L103.9,39.3z"/>
			<path class="st0" d="M109.9,44.6V44c-0.5,0.5-0.9,0.6-1.7,0.6c-0.8,0-1.3-0.2-1.7-0.6c-0.3-0.3-0.5-0.8-0.5-1.4
				c0-1.1,0.7-1.8,2.2-1.8h1.7v-0.4c0-0.8-0.4-1.2-1.4-1.2c-0.7,0-1,0.2-1.4,0.6l-0.8-0.8c0.6-0.7,1.2-0.9,2.3-0.9
				c1.7,0,2.6,0.7,2.6,2.2v4.2L109.9,44.6L109.9,44.6L109.9,44.6z M109.9,41.8h-1.5c-0.8,0-1.2,0.3-1.2,0.9s0.4,0.9,1.2,0.9
				c0.4,0,0.8-0.1,1.1-0.4c0.2-0.2,0.3-0.5,0.3-0.9v-0.5H109.9z"/>
			<path class="st0" d="M115.5,44.7c-1.4,0-2.8-0.9-2.8-3.2c0-2.4,1.4-3.2,2.8-3.2c0.9,0,1.5,0.3,2.1,0.9l-0.9,0.8
				c-0.4-0.4-0.7-0.6-1.2-0.6s-0.9,0.2-1.2,0.6c-0.3,0.3-0.4,0.8-0.4,1.5c0,0.7,0.1,1.2,0.4,1.5c0.3,0.4,0.7,0.6,1.2,0.6
				s0.8-0.2,1.2-0.6l0.9,0.8C117,44.4,116.4,44.7,115.5,44.7z"/>
			<path class="st0" d="M121,44.6c-1.2,0-1.7-0.8-1.7-1.8v-3.6h-0.7v-1h0.7v-1.8h1.3v1.8h1.2v1h-1.2v3.5c0,0.5,0.2,0.7,0.7,0.7h0.5
				v1.1H121V44.6z"/>
			<path class="st0" d="M125.5,44.7c-1,0-1.9-0.2-2.7-0.9l0.8-0.8c0.5,0.5,1.2,0.7,1.8,0.7c0.8,0,1.4-0.3,1.4-0.9
				c0-0.4-0.2-0.7-0.8-0.7l-1-0.1c-1.2-0.1-1.9-0.6-1.9-1.7c0-1.2,1.1-1.9,2.4-1.9c1,0,1.8,0.2,2.3,0.7l-0.8,0.8
				c-0.4-0.3-1-0.5-1.6-0.5c-0.8,0-1.1,0.3-1.1,0.8c0,0.4,0.3,0.7,0.9,0.7l0.9,0.1c1.3,0.1,2,0.7,2,1.8
				C128.1,44,127,44.7,125.5,44.7z"/>
		</g>
	</g>
</g>
<g>
	
		<radialGradient id="SVGID_1_" cx="-44.1849" cy="-572.3214" r="15.4558" fx="-52.0451" fy="-578.8526" gradientTransform="matrix(-0.1247 0.5238 -0.363 -8.640000e-02 -198.4034 15.5937)" gradientUnits="userSpaceOnUse">
		<stop  offset="0" style="stop-color:#FFFFFF"/>
		<stop  offset="1" style="stop-color:#E94D18"/>
	</radialGradient>
	<polygon class="st1" points="12,33.8 16.1,40.9 12,48 	"/>
	
		<radialGradient id="SVGID_2_" cx="84.3859" cy="-152.3369" r="14.5373" gradientTransform="matrix(0.5384 0 0 0.5384 -25.7206 131.2079)" gradientUnits="userSpaceOnUse">
		<stop  offset="0" style="stop-color:#FFFFFF"/>
		<stop  offset="1" style="stop-color:#E94D18"/>
	</radialGradient>
	<polygon class="st2" points="12,48 16.1,40.9 24.3,40.9 	"/>
	
		<radialGradient id="SVGID_3_" cx="114.5061" cy="-254.9896" r="12.7321" gradientTransform="matrix(0.4809 0.242 -0.2005 0.3984 -86.4535 117.0147)" gradientUnits="userSpaceOnUse">
		<stop  offset="0" style="stop-color:#FFFFFF"/>
		<stop  offset="1" style="stop-color:#E94D18"/>
	</radialGradient>
	<polygon class="st3" points="24.3,40.9 16.1,40.9 12,33.8 	"/>
</g>
</svg>
